<svg width="16" height="16" xmlns="http://www.w3.org/2000/svg">
 <!-- Created with Method Draw - http://github.com/duopixel/Method-Draw/ -->
 <g>
  <title>background</title>
  <rect fill="none" id="canvas_background" height="18" width="18" y="-1" x="-1"/>
  <g display="none" overflow="visible" y="0" x="0" height="100%" width="100%" id="canvasGrid">
   <rect fill="url(#gridpattern)" stroke-width="0" y="0" x="0" height="100%" width="100%"/>
  </g>
 </g>
 <g>
  <title>Layer 1</title>
  <path stroke="#000" id="svg_5" d="m9.310634,10.600049l-0.442589,-1.5489c0.129705,-0.113764 0.251445,-0.235492 0.366359,-0.365752l1.547924,0.442543c0.163269,-0.237767 0.303783,-0.490324 0.429505,-0.75255l-1.151983,-1.11489c0.055181,-0.16382 0.102967,-0.330485 0.1371,-0.502269l1.552475,-0.389073c0.011378,-0.143343 0.022187,-0.287255 0.022187,-0.434011s-0.011378,-0.290098 -0.022187,-0.433441l-1.552475,-0.389074c-0.034702,-0.171784 -0.082488,-0.338448 -0.1371,-0.502269l1.152552,-1.114889c-0.126291,-0.261658 -0.266805,-0.514783 -0.430074,-0.75255l-1.547924,0.441974c-0.114345,-0.129692 -0.236654,-0.251419 -0.366359,-0.365752l0.442589,-1.548331c-0.237792,-0.162683 -0.490944,-0.303751 -0.753198,-0.42946l-1.115006,1.152431c-0.163269,-0.055175 -0.33052,-0.102387 -0.502322,-0.137085l-0.388545,-1.552882c-0.143927,-0.010807 -0.287285,-0.022184 -0.434056,-0.022184s-0.290129,0.011377 -0.433487,0.022184l-0.389114,1.552882c-0.171802,0.034698 -0.338484,0.08191 -0.502322,0.137085l-1.115006,-1.152431c-0.261685,0.127416 -0.514268,0.267915 -0.75206,0.431166l0.442589,1.548331c-0.129705,0.113764 -0.252014,0.236061 -0.36579,0.365183l-1.548493,-0.442542c-0.163269,0.237767 -0.303783,0.490892 -0.429505,0.753119l1.152552,1.114889c-0.054613,0.16382 -0.102399,0.330485 -0.1371,0.502269l-1.553044,0.389073c-0.010809,0.143343 -0.022187,0.287255 -0.022187,0.433442s0.011378,0.290099 0.022187,0.43401l1.553044,0.389074c0.034701,0.171784 0.082487,0.338449 0.1371,0.502269l-1.152552,1.114889c0.125722,0.261658 0.266236,0.514783 0.429505,0.75255l1.548493,-0.442542c0.113776,0.13026 0.236085,0.251419 0.36579,0.365752l-0.442589,1.548899c0.237792,0.162683 0.490944,0.303182 0.752629,0.42946l1.115006,-1.152431c0.163838,0.055175 0.33052,0.102956 0.502322,0.137086l0.389114,1.552312c0.143358,0.011377 0.287285,0.022184 0.434056,0.022184s0.290129,-0.011376 0.434056,-0.022184l0.388545,-1.552312c0.171802,-0.034699 0.339053,-0.082479 0.502322,-0.137086l1.115006,1.152431c0.261116,-0.127416 0.514268,-0.267915 0.75206,-0.430597zm-3.192558,-2.73091c-1.067789,0 -1.933625,-0.865746 -1.933625,-1.933423s0.865836,-1.932854 1.933625,-1.932854s1.933056,0.865177 1.933056,1.932854s-0.865267,1.933423 -1.933056,1.933423zm8.813099,4.041473c0.010808,-0.311145 -0.034133,-0.627978 -0.130843,-0.94083l0.707688,-1.008519c-0.10695,-0.199088 -0.227553,-0.387936 -0.364653,-0.55972l-1.207164,0.253125c-0.243481,-0.207051 -0.520526,-0.368596 -0.816913,-0.484067l-0.347586,-1.182579c-0.219588,-0.038679 -0.44202,-0.059726 -0.667297,-0.060295l-0.55409,1.101238c-0.158718,0.030716 -0.317435,0.072809 -0.473309,0.132535c-0.146202,0.055745 -0.282733,0.125141 -0.413576,0.200794l-1.141174,-0.465864c-0.168958,0.149031 -0.323125,0.310007 -0.4625,0.484635l0.515974,1.11944c-0.14734,0.281566 -0.2486,0.584748 -0.295249,0.901581l-1.075753,0.602951c0.010809,0.220702 0.043235,0.441405 0.093297,0.662676l1.196924,0.295218c0.131412,0.298062 0.307765,0.564839 0.521095,0.792368l-0.200246,1.216139c0.182042,0.130829 0.375461,0.243456 0.576276,0.341293l0.97563,-0.750844c0.30492,0.080204 0.624063,0.11092 0.94548,0.085323l0.826015,0.914096c0.113776,-0.032423 0.226983,-0.067121 0.339053,-0.109783c0.099554,-0.037542 0.193419,-0.08191 0.287284,-0.126847l0.021049,-1.231498c0.258841,-0.19283 0.479566,-0.424909 0.65535,-0.685998l1.229351,-0.076222c0.08647,-0.204206 0.158718,-0.416377 0.209349,-0.634235l-0.949462,-0.786111zm-2.36825,1.141624c-0.683226,0.26052 -1.447802,-0.08191 -1.708918,-0.765064s0.08135,-1.448219 0.764576,-1.709307c0.683225,-0.26052 1.448939,0.08191 1.710055,0.765064c0.261116,0.683154 -0.082488,1.448218 -0.765713,1.709307z" fill-opacity="null" stroke-opacity="null" stroke-width="0.5" fill="#fff"/>
 </g>
</svg>